<?xml version="1.0" encoding="utf-8"?>
<!-- Generator: Adobe Illustrator 16.0.0, SVG Export Plug-In . SVG Version: 6.00 Build 0)  -->
<!DOCTYPE svg PUBLIC "-//W3C//DTD SVG 1.1//EN" "http://www.w3.org/Graphics/SVG/1.1/DTD/svg11.dtd">
<svg version="1.1" id="Layer_1" xmlns="http://www.w3.org/2000/svg" xmlns:xlink="http://www.w3.org/1999/xlink" x="0px" y="0px"
	 width="9px" height="10px" viewBox="0 0 9 10" enable-background="new 0 0 9 10" xml:space="preserve">
<rect fill="#010202" width="1" height="1"/>
<rect x="8" fill="#010202" width="1" height="1"/>
<rect x="7" y="1" fill="#010202" width="1" height="1"/>
<rect x="6" y="2" fill="#010202" width="1" height="1"/>
<rect x="5" y="3" fill="#010202" width="1" height="1"/>
<rect x="4" y="4" fill="#010202" width="1" height="1"/>
<rect x="3" y="3" fill="#010202" width="1" height="1"/>
<rect x="2" y="2" fill="#010202" width="1" height="1"/>
<rect x="1" y="1" fill="#010202" width="1" height="1"/>
<rect y="5" fill="#010202" width="1" height="1"/>
<rect x="8" y="5" fill="#010202" width="1" height="1"/>
<rect x="7" y="6" fill="#010202" width="1" height="1"/>
<rect x="6" y="7" fill="#010202" width="1" height="1"/>
<rect x="5" y="8" fill="#010202" width="1" height="1"/>
<rect x="4" y="9" fill="#010202" width="1" height="1"/>
<rect x="3" y="8" fill="#010202" width="1" height="1"/>
<rect x="2" y="7" fill="#010202" width="1" height="1"/>
<rect x="1" y="6" fill="#010202" width="1" height="1"/>
</svg>
