<?xml version="1.0" encoding="utf-8"?>
<!-- Generator: Adobe Illustrator 15.0.0, SVG Export Plug-In . SVG Version: 6.00 Build 0)  -->
<!DOCTYPE svg PUBLIC "-//W3C//DTD SVG 1.1//EN" "http://www.w3.org/Graphics/SVG/1.1/DTD/svg11.dtd">
<svg version="1.1" id="Layer_1" xmlns="http://www.w3.org/2000/svg" xmlns:xlink="http://www.w3.org/1999/xlink" x="0px" y="0px"
	 width="35.28px" height="39.6px" viewBox="0 0 35.28 39.6" enable-background="new 0 0 35.28 39.6" xml:space="preserve">
<g>
	<g>
		<rect x="12.645" y="16.246" fill-rule="evenodd" clip-rule="evenodd" fill="#293B59" width="3.711" height="3.711"/>
	</g>
	<g>
		<rect x="19.138" y="16.246" fill-rule="evenodd" clip-rule="evenodd" fill="#293B59" width="3.712" height="3.711"/>
	</g>
	<g>
		<rect x="25.633" y="16.246" fill-rule="evenodd" clip-rule="evenodd" fill="#293B59" width="3.711" height="3.711"/>
	</g>
	<g>
		<rect x="6.15" y="23.003" fill-rule="evenodd" clip-rule="evenodd" fill="#293B59" width="3.711" height="3.711"/>
	</g>
	<g>
		<rect x="12.645" y="23.003" fill-rule="evenodd" clip-rule="evenodd" fill="#293B59" width="3.711" height="3.711"/>
	</g>
	<g>
		<rect x="19.138" y="23.003" fill-rule="evenodd" clip-rule="evenodd" fill="#293B59" width="3.712" height="3.711"/>
	</g>
	<g>
		<rect x="6.15" y="29.757" fill-rule="evenodd" clip-rule="evenodd" fill="#293B59" width="3.711" height="3.713"/>
	</g>
	<g>
		<rect x="12.645" y="29.757" fill-rule="evenodd" clip-rule="evenodd" fill="#293B59" width="3.711" height="3.713"/>
	</g>
	<g>
		<rect x="19.138" y="29.757" fill-rule="evenodd" clip-rule="evenodd" fill="#293B59" width="3.712" height="3.713"/>
	</g>
	<g>
		<rect x="25.633" y="23.003" fill-rule="evenodd" clip-rule="evenodd" fill="#293B59" width="3.711" height="3.711"/>
	</g>
	<g>
		<path fill-rule="evenodd" clip-rule="evenodd" fill="#293B59" d="M8.118,8.754c0.963,0,1.744-0.78,1.744-1.743V2.43
			c0-0.963-0.781-1.743-1.744-1.743c-0.963,0-1.744,0.78-1.744,1.743v4.581C6.374,7.974,7.155,8.754,8.118,8.754z"/>
	</g>
	<g>
		<path fill-rule="evenodd" clip-rule="evenodd" fill="#293B59" d="M26.786,8.754c0.964,0,1.743-0.78,1.743-1.743V2.43
			c0-0.963-0.779-1.743-1.743-1.743c-0.963,0-1.743,0.78-1.743,1.743v4.581C25.042,7.974,25.823,8.754,26.786,8.754z"/>
	</g>
	<g>
		<path fill-rule="evenodd" clip-rule="evenodd" fill="#293B59" d="M30.491,4.912h-0.232v2.099c0,1.915-1.558,3.473-3.473,3.473
			s-3.473-1.558-3.473-3.473V4.912H11.59v2.099c0,1.915-1.558,3.473-3.473,3.473c-1.915,0-3.472-1.558-3.472-3.473V4.92
			C2.421,4.996,0.64,6.818,0.64,9.062v25.701c0,2.293,1.858,4.15,4.149,4.15h25.701c2.292,0,4.149-1.857,4.149-4.15V9.062
			C34.64,6.77,32.783,4.912,30.491,4.912z M31.757,33.958c0,1.145-0.928,2.074-2.074,2.074H5.597c-1.146,0-2.075-0.93-2.075-2.074
			V13.557h28.235V33.958z"/>
	</g>
</g>
</svg>
